<?xml version="1.0" encoding="UTF-8" standalone="no"?>
<!-- Created with Inkscape (http://www.inkscape.org/) -->

<svg
   width="200mm"
   height="200mm"
   viewBox="0 0 200 200"
   version="1.1"
   id="svg5"
   inkscape:version="1.2.2 (b0a8486541, 2022-12-01)"
   sodipodi:docname="icon.svg"
   xmlns:inkscape="http://www.inkscape.org/namespaces/inkscape"
   xmlns:sodipodi="http://sodipodi.sourceforge.net/DTD/sodipodi-0.dtd"
   xmlns="http://www.w3.org/2000/svg"
   xmlns:svg="http://www.w3.org/2000/svg">
  <sodipodi:namedview
     id="namedview7"
     pagecolor="#ffffff"
     bordercolor="#000000"
     borderopacity="0.25"
     inkscape:showpageshadow="2"
     inkscape:pageopacity="0.0"
     inkscape:pagecheckerboard="0"
     inkscape:deskcolor="#d1d1d1"
     inkscape:document-units="mm"
     showgrid="false"
     inkscape:zoom="0.73673541"
     inkscape:cx="309.47338"
     inkscape:cy="397.70044"
     inkscape:window-width="1920"
     inkscape:window-height="1007"
     inkscape:window-x="0"
     inkscape:window-y="0"
     inkscape:window-maximized="1"
     inkscape:current-layer="layer1" />
  <defs
     id="defs2">
    <inkscape:path-effect
       effect="powerstroke"
       id="path-effect4457"
       is_visible="true"
       lpeversion="1"
       offset_points="3.0221145,4.696137"
       not_jump="true"
       sort_points="true"
       interpolator_type="CentripetalCatmullRom"
       interpolator_beta="0.75"
       start_linecap_type="round"
       linejoin_type="spiro"
       miter_limit="4"
       scale_width="1"
       end_linecap_type="round" />
    <inkscape:path-effect
       effect="simplify"
       id="path-effect4455"
       is_visible="true"
       lpeversion="1"
       steps="1"
       threshold="0.0047745358"
       smooth_angles="0"
       helper_size="0"
       simplify_individual_paths="false"
       simplify_just_coalesce="false"
       step="1" />
    <inkscape:path-effect
       effect="powerstroke"
       id="path-effect4450"
       is_visible="true"
       lpeversion="1"
       offset_points="2.1497384,4.7173925 | 9.4783372,5.3869407"
       not_jump="true"
       sort_points="true"
       interpolator_type="CentripetalCatmullRom"
       interpolator_beta="0.75"
       start_linecap_type="round"
       linejoin_type="spiro"
       miter_limit="4"
       scale_width="1"
       end_linecap_type="round" />
    <inkscape:path-effect
       effect="simplify"
       id="path-effect4448"
       is_visible="true"
       lpeversion="1"
       steps="1"
       threshold="0.0047745358"
       smooth_angles="0"
       helper_size="0"
       simplify_individual_paths="false"
       simplify_just_coalesce="false"
       step="1" />
    <inkscape:path-effect
       effect="powerstroke"
       id="path-effect4443"
       is_visible="true"
       lpeversion="1"
       offset_points="2.7473721,5.331145 | 3.3319767,3.2753397"
       not_jump="true"
       sort_points="true"
       interpolator_type="CentripetalCatmullRom"
       interpolator_beta="0.75"
       start_linecap_type="round"
       linejoin_type="spiro"
       miter_limit="4"
       scale_width="1"
       end_linecap_type="round" />
    <inkscape:path-effect
       effect="simplify"
       id="path-effect4441"
       is_visible="true"
       lpeversion="1"
       steps="1"
       threshold="0.0047745358"
       smooth_angles="0"
       helper_size="0"
       simplify_individual_paths="false"
       simplify_just_coalesce="false"
       step="1" />
    <inkscape:path-effect
       effect="powerstroke"
       id="path-effect4436"
       is_visible="true"
       lpeversion="1"
       offset_points="2.4709993,4.9724585"
       not_jump="true"
       sort_points="true"
       interpolator_type="CentripetalCatmullRom"
       interpolator_beta="0.75"
       start_linecap_type="round"
       linejoin_type="spiro"
       miter_limit="4"
       scale_width="1"
       end_linecap_type="round" />
    <inkscape:path-effect
       effect="simplify"
       id="path-effect4434"
       is_visible="true"
       lpeversion="1"
       steps="1"
       threshold="0.0047745358"
       smooth_angles="0"
       helper_size="0"
       simplify_individual_paths="false"
       simplify_just_coalesce="false"
       step="1" />
    <inkscape:path-effect
       effect="powerstroke"
       id="path-effect4429"
       is_visible="true"
       lpeversion="1"
       offset_points="5.0842271,5.0800644"
       not_jump="true"
       sort_points="true"
       interpolator_type="CentripetalCatmullRom"
       interpolator_beta="0.75"
       start_linecap_type="round"
       linejoin_type="spiro"
       miter_limit="4"
       scale_width="1"
       end_linecap_type="round" />
    <inkscape:path-effect
       effect="simplify"
       id="path-effect4427"
       is_visible="true"
       lpeversion="1"
       steps="1"
       threshold="0.0047745358"
       smooth_angles="0"
       helper_size="0"
       simplify_individual_paths="false"
       simplify_just_coalesce="false"
       step="1" />
  </defs>
  <g
     inkscape:groupmode="layer"
     id="layer2"
     inkscape:label="Layer 2"
     style="fill:#800080">
    <rect
       style="fill:#800080;stroke:#fe0000;stroke-width:7.99999"
       id="rect497"
       width="223.37848"
       height="225.53325"
       x="-7.5417171"
       y="-7.5417171" />
  </g>
  <g
     inkscape:label="Layer 1"
     inkscape:groupmode="layer"
     id="layer1"
     style="fill:#ffff00">
    <path
       style="fill:none;stroke:#ffff00;stroke-width:7.99999"
       id="path5294"
       d="m 22.402473,23.163076 c 0.581292,0.08089 1.157945,0.209082 1.743876,0.242671 2.910162,0.16683 6.474822,-0.0294 9.265485,-0.140301 2.568464,-0.102073 5.135846,-0.229927 7.704095,-0.33721 10.613141,-0.443342 8.393735,-0.343314 19.566088,-0.692384 10.953816,-0.148768 10.930345,-0.224737 21.918845,-0.06671 3.457321,0.04972 6.913007,0.198282 10.370574,0.226039 5.44108,0.428761 10.855604,-0.369794 16.285664,-0.386164 2.25036,-0.0068 4.49707,0.181801 6.74561,0.272701 0,0 -0.16131,-0.118242 -0.16131,-0.118242 v 0 C 103.01685,21.592772 115.32796,22.320378 99.692684,20.695673 96.28517,20.341589 92.872419,20.019187 89.452102,19.824409 85.956655,19.625352 82.453834,19.580274 78.953338,19.514622 70.088669,19.348361 65.756062,19.43541 56.894653,19.497085 c -31.602703,0.43245 8.591145,-0.142968 -20.05597,0.341631 -2.673302,0.04522 -5.346787,0.08706 -8.020449,0.09886 -2.54262,0.01122 -6.738904,0.01013 -9.547251,-0.173655 -0.505634,-0.03309 -1.005419,-0.127184 -1.508128,-0.190776 0,0 4.639618,3.589933 4.639618,3.589933 z" />
    <path
       style="fill:none;stroke:#ffff00;stroke-width:7.99999"
       id="path5296"
       d="m 61.021779,22.544713 c -0.184988,0.694008 -0.426479,1.375369 -0.554963,2.082022 -0.291772,1.604704 -0.481425,3.226375 -0.704003,4.84213 -1.5244,11.065923 -0.621324,4.834311 -2.103192,16.899845 -0.01942,0.158046 -2.374222,18.509292 -2.404941,18.748692 -0.679362,7.839456 -2.29082,15.644019 -1.736441,23.552671 0.641376,9.14975 1.539628,2.768061 0.150751,9.475558 0,0 0.176308,0.09442 0.176308,0.09442 v 0 c 1.821646,-8.793168 -0.868995,2.457279 3.064468,-7.788931 0.750284,-1.954409 1.216898,-4.012949 1.629349,-6.065396 0.210828,-1.049131 2.282788,-15.846668 2.347666,-16.306207 0.709787,-5.378852 1.740728,-13.32539 2.519294,-18.684999 0.435861,-3.000452 0.92828,-5.99244 1.37741,-8.990936 0.383564,-2.56077 0.731689,-5.126797 1.120656,-7.686752 0.243149,-1.600279 0.55998,-3.189374 0.775634,-4.793588 0.102171,-0.760039 0.118078,-1.529199 0.177117,-2.293799 0,0 -5.835113,-3.084729 -5.835113,-3.084729 z" />
    <path
       style="fill:none;stroke:#ffff00;stroke-width:7.99999"
       id="path5304"
       d="m 6.4302195,107.04445 c 12.1757645,-1.08005 24.3393035,-2.30262 36.5387375,-3.10197 12.256484,-0.80308 16.301815,-0.87338 28.564104,-1.34053 5.192025,-0.17521 19.514254,-0.62826 25.10319,-0.92637 3.166743,-0.1689 6.321429,-0.55552 9.491069,-0.65628 2.74019,-0.0871 5.4828,0.0621 8.2242,0.0931 0,0 -0.16167,-0.11774 -0.16167,-0.11774 v 0 c -24.256225,-0.274 11.33354,0.24785 -19.477487,-0.7126 -9.807826,-0.305735 -16.301254,-0.0496 -26.203963,0.14026 -22.318884,0.88703 -44.645791,1.70639 -66.9376528,3.14122 0,0 4.8594723,3.4809 4.8594723,3.4809 z" />
    <path
       style="fill:none;stroke:#ffff00;stroke-width:7.99999"
       id="path5306"
       d="m 138.55828,76.488853 c -0.7684,-0.207934 -1.51621,-0.518055 -2.30519,-0.623803 -2.65206,-0.355463 -7.73672,-0.307724 -10.13442,-0.167423 -5.58282,0.326675 -10.73711,0.917768 -16.16304,2.432259 -3.19279,0.891175 -6.26026,2.182095 -9.3904,3.273142 -3.271447,1.695502 -6.729852,3.070815 -9.814349,5.086503 -6.593133,4.308546 -13.648462,10.959938 -18.790827,16.875259 -4.88523,5.61954 -9.511813,12.00188 -12.152164,19.0585 -1.124392,3.00506 -1.451235,6.2508 -2.176852,9.3762 0.366554,7.6566 -0.505028,9.65753 3.584252,16.41758 3.257217,5.38455 7.656822,8.79922 13.316114,11.45644 4.619556,2.16903 9.372817,4.15296 14.31141,5.43954 3.629023,0.94542 7.457303,0.80195 11.185956,1.20293 4.22166,-0.33814 8.46975,-0.43403 12.66497,-1.01442 4.36691,-0.60415 8.69328,-1.50687 12.98057,-2.53354 11.15884,-2.67218 22.16887,-6.64293 32.03624,-12.57691 2.59713,-1.56184 4.97373,-3.46405 7.4606,-5.19607 5.33597,-4.2428 10.00011,-9.20954 13.49002,-15.08541 1.19281,-2.0083 2.75594,-5.28193 3.29185,-7.67033 0.2028,-0.90384 0.14245,-1.84714 0.21368,-2.77071 -2.73578,-4.32887 -1.92175,-3.80712 -10.1589,-6.57409 -1.16717,-0.39207 -11.70205,0.0684 -11.87735,0.0766 -7.18313,0.33496 -8.36831,0.51724 -15.48924,1.15541 -4.69169,0.65207 -7.61812,1.16744 -12.27027,1.42389 -1.5572,0.0858 -3.11886,0.0407 -4.67829,0.0611 0,0 0.16195,0.11735 0.16195,0.11735 v 0 c 1.55948,-0.0204 3.11896,-0.0826 4.67842,-0.0613 3.77835,0.0516 11.59706,0.4348 15.0659,0.58958 2.88042,0.009 5.76084,0.0318 8.64127,0.0255 4.17043,-0.009 11.32939,-0.18667 15.63406,0.10045 1.8384,0.12262 3.95986,1.72237 5.48449,0.68784 1.04978,-0.71232 -1.83591,-1.79461 -2.94456,-2.41131 -0.67357,-0.37468 1.0693,1.11039 1.60395,1.66558 0.0463,0.91663 0.24538,1.83829 0.1389,2.74989 -0.28051,2.40141 -1.6123,5.78211 -2.65234,7.83073 -3.0435,5.99497 -7.40111,11.07008 -12.44563,15.47763 -2.37853,1.77787 -4.6392,3.72542 -7.1356,5.3336 -5.93114,3.82086 -12.71143,6.99885 -19.33755,9.34837 -7.74747,2.74714 -16.89678,5.02714 -25.04996,5.97235 -4.3333,0.50237 -8.71472,0.41593 -13.07208,0.62389 -3.790606,-0.48235 -7.579606,-0.97751 -11.371821,-1.44705 -1.911429,-0.23667 -3.951922,0.0469 -5.738918,-0.67157 -7.923479,-3.18573 -14.450763,-10.36112 -16.541112,-18.68456 -0.707649,-2.81774 -0.498605,-5.78904 -0.747908,-8.68357 0.591481,-3.15385 0.774861,-6.41238 1.774438,-9.46156 2.339086,-7.13531 6.652763,-13.6403 11.472352,-19.29936 5.273014,-6.19145 12.045098,-12.280213 18.940812,-16.62519 3.120527,-1.966238 6.591547,-3.311586 9.887327,-4.967377 3.11834,-1.076788 6.18113,-2.330395 9.35502,-3.230364 2.75061,-0.779947 5.5703,-1.304907 8.38613,-1.800209 6.20341,-1.091182 12.56116,-1.483644 18.81991,-0.646946 0,0 -2.14182,-1.655088 -2.14182,-1.655088 z" />
    <path
       style="fill:none;stroke:#ffff00;stroke-width:7.99999"
       id="path5316"
       d="m 183.03409,192.89812 c -0.0768,-0.79538 -0.10683,-1.5967 -0.23055,-2.38615 -0.21915,-1.39834 -0.54643,-2.7777 -0.79705,-4.17074 -0.87241,-4.84923 -1.53332,-8.81952 -2.12733,-13.79251 -0.95999,-8.03699 -0.93342,-9.60134 -1.42256,-17.72138 -0.8925,-30.21905 0.25241,11.23271 -0.27617,-16.64231 -0.0445,-2.34827 -0.15002,-4.69522 -0.26528,-7.04107 -0.38035,-7.74136 -0.80622,-3.70427 0.42452,-10.04768 0,0 -0.17642,-0.0942 -0.17642,-0.0942 v 0 c -1.97176,10.15923 0.77133,-2.53253 -2.74283,8.84305 -0.62489,2.02281 -1.13415,4.09206 -1.42892,6.18857 -0.69074,4.91275 -0.53203,11.39592 -0.55031,16.27239 0.40587,8.36902 0.88603,16.72445 1.55136,25.07748 0.15283,1.91865 0.33188,3.83512 0.49946,5.75253 0.11524,1.31849 0.1789,2.64264 0.34902,3.95518 0.11163,0.86123 0.33009,1.70522 0.49514,2.55783 0,0 6.69792,3.24901 6.69792,3.24901 z" />
  </g>
</svg>
